<svg xmlns="http://www.w3.org/2000/svg" xmlns:xlink="http://www.w3.org/1999/xlink" version="1.1" id="Layer_1" x="0px" y="0px" width="100%" viewBox="0 0 500 500" enable-background="new 0 0 500 500" xml:space="preserve">

<path fill="#A8853A" opacity="1.000000" stroke="none" d=" M82.906845,308.075958   C65.497360,300.828918 50.086151,290.526001 37.848656,276.205383   C26.867104,263.354492 21.550653,248.478760 24.807529,231.102798   C27.295122,217.831100 32.683296,206.330078 42.512787,196.993454   C44.472355,195.132141 46.366673,193.202148 48.890198,191.044128   C49.980106,190.159561 50.470890,189.534683 50.961670,188.909790   C50.961670,188.909790 50.960674,188.974594 51.295063,188.917725   C52.845741,187.719818 54.062031,186.578781 55.278324,185.437759   C55.278324,185.437759 55.618328,185.452606 55.829758,185.418793   C56.350784,184.898926 56.660381,184.412888 56.969978,183.926849   C56.969978,183.926849 56.986084,183.986832 57.251320,183.908386   C57.990459,183.481110 58.464367,183.132263 58.938271,182.783417   C59.004395,182.497314 59.159668,182.272919 59.997589,182.057297   C62.947334,181.002670 65.240952,179.793884 67.677284,179.056915   C70.163635,178.304810 73.176987,177.483032 72.000587,182.148560   C72.000587,182.148560 72.007393,182.009613 71.778503,182.171173   C70.885719,182.932281 70.221825,183.531830 69.557922,184.131363   C69.557922,184.131363 69.912819,184.265091 69.510796,184.245010   C63.521736,183.335464 60.489616,185.736420 59.026623,192.208359   C55.228638,196.774109 51.648033,201.545212 47.577965,205.853943   C42.420483,211.313889 39.784626,218.027390 38.602947,225.022247   C36.415432,237.971069 38.221466,250.353699 45.940014,261.578491   C55.770081,275.873993 69.268440,285.733032 83.684875,294.617310   C80.184006,295.549927 79.204117,296.902374 82.353035,298.824860   C84.833267,300.339111 84.821411,301.921051 83.729378,304.213074   C83.178665,305.368958 83.163933,306.780182 82.906845,308.075958  z"/>
<path fill="#B18C35" opacity="1.000000" stroke="none" d=" M387.930176,321.787567   C387.930176,321.787567 387.508514,321.930817 386.872589,321.969910   C376.261780,324.724213 366.268372,327.374969 356.334991,330.234375   C355.061646,330.600891 354.100616,332.052399 352.819580,333.161774   C352.417480,333.545074 352.209778,333.784485 352.032776,334.272705   C352.044403,334.504974 352.050842,334.970062 351.770477,335.110504   C350.313721,338.496185 349.137299,341.741425 347.695374,344.913635   C346.948792,344.578064 346.467682,344.315491 345.881531,343.722229   C344.476440,340.828186 342.369171,340.298553 340.738770,342.524414   C338.577515,345.475098 336.040894,345.494202 332.890564,345.175446   C324.634491,344.340088 323.679352,345.409363 325.339447,353.964813   C322.747772,353.250092 320.569550,352.649414 317.849030,351.899139   C319.237427,349.316132 320.302338,347.316132 321.385223,345.325958   C322.312317,343.622040 323.260040,341.929352 324.198669,340.231720   C322.134888,339.489197 320.109528,338.593506 317.992737,338.062286   C316.748596,337.750061 315.359039,338.017151 314.043274,337.640747   C315.359253,332.433716 316.937439,331.792236 322.014404,332.731476   C324.540985,333.198914 327.567657,333.161713 329.864380,332.177399   C333.676941,330.543427 337.062408,327.926392 340.666748,325.789215   C343.787994,323.938446 347.089355,322.364807 350.084595,320.334473   C354.331268,317.455811 358.360321,314.257202 362.500610,311.220184   C366.007935,308.647491 369.586029,306.138580 369.294373,300.786804   C372.058258,299.885986 374.520477,299.173981 376.443024,298.618011   C377.083008,301.134399 377.569183,303.045959 378.377289,304.982788   C379.127869,304.977661 379.556519,304.947235 380.304138,305.110168   C389.441895,306.584595 395.040680,304.013031 395.693665,298.211304   C397.141998,298.125183 398.621552,298.037201 400.101074,297.949219   C400.101074,297.949219 400.021667,297.953369 400.124207,298.251343   C402.264587,301.683441 405.450043,304.899567 402.327026,308.710419   C399.794708,311.800507 396.372589,314.159485 393.357758,316.856812   C391.536163,318.486542 389.738556,320.143066 387.930176,321.787567  z"/>
<path fill="#B7923A" opacity="1.000000" stroke="none" d=" M368.992737,300.975616   C369.586029,306.138580 366.007935,308.647491 362.500610,311.220184   C358.360321,314.257202 354.331268,317.455811 350.084595,320.334473   C347.089355,322.364807 343.787994,323.938446 340.666748,325.789215   C337.062408,327.926392 333.676941,330.543427 329.864380,332.177399   C327.567657,333.161713 324.540985,333.198914 322.014404,332.731476   C316.937439,331.792236 315.359253,332.433716 313.787842,337.798218   C312.681183,339.176178 311.838287,340.013672 310.995361,340.851196   C310.561890,340.902740 310.128418,340.954315 309.056885,340.840149   C305.491333,340.429382 302.507904,339.696716 299.646118,340.024811   C287.974548,341.363098 276.327698,342.939636 264.700043,344.623962   C261.399963,345.101990 259.575684,344.102264 258.951904,340.868347   C259.419678,340.298889 259.887482,339.729431 260.933472,338.950867   C262.326019,337.479645 263.140411,336.217529 263.954773,334.955383   C263.954773,334.955383 263.997559,335.000000 264.326416,334.919495   C265.412903,333.559143 266.170563,332.279327 267.288391,331.050415   C268.506989,331.569122 269.540497,331.865509 270.194489,332.533478   C273.642761,336.055359 277.692963,335.947113 280.939423,333.100098   C285.540253,329.065369 290.211761,328.617645 295.708008,330.352966   C299.164093,331.444153 302.385620,331.591705 304.762848,327.608032   C305.636383,326.144226 308.374146,325.190063 310.322205,325.080292   C316.888794,324.710236 323.094391,323.994781 329.235382,320.871429   C337.203339,316.818787 345.682739,313.836639 351.259338,305.846436   C351.751068,304.950439 351.976166,304.214752 352.201233,303.479065   C352.201202,303.479065 352.451447,303.168396 352.990417,303.398560   C354.028778,303.747772 354.528137,303.866852 355.431854,303.981628   C360.221710,302.976715 364.607239,301.976166 368.992737,300.975616  z"/>
<path fill="#A48545" opacity="1.000000" stroke="none" d=" M186.040466,347.760010   C176.065857,346.880249 165.996078,346.583923 156.140274,344.975952   C143.258179,342.874176 130.447037,340.127502 117.781097,336.956421   C94.778091,331.197235 73.544518,321.481476 53.683346,308.350189   C39.851471,299.205200 27.984617,288.409607 20.491758,273.688416   C17.126205,267.076141 15.655951,259.345612 14.247092,251.947021   C13.363379,247.306244 14.192911,242.339203 14.786762,236.955460   C15.536570,235.233582 15.753385,234.074814 15.970201,232.916031   C15.970202,232.916031 16.106596,232.460754 16.529608,232.221558   C17.881584,231.981262 18.810551,231.980179 19.739515,231.979095   C15.586556,244.855438 19.497839,256.579254 25.460844,267.718079   C28.602707,273.587036 32.960644,278.804962 36.548874,284.612854   C33.711239,283.030151 31.094225,281.151398 28.477209,279.272675   C28.199419,279.620117 27.921629,279.967560 27.643839,280.315033   C28.186361,281.064728 28.647846,281.893005 29.285389,282.550629   C32.103973,285.457916 35.508858,287.958374 37.716637,291.263916   C42.892151,299.012787 50.574421,303.572815 58.220287,308.080841   C59.726566,308.968933 64.547752,312.159912 65.020203,305.950928   C72.222183,309.308807 79.299141,312.976837 86.658829,315.943481   C95.224922,319.396301 104.038521,322.235138 112.503601,325.671112   C106.801147,324.430939 101.243942,323.128693 95.902466,321.222046   C89.045532,318.774384 82.391617,315.762238 75.573547,313.197083   C74.476654,312.784363 72.980766,313.432129 71.669327,313.589661   C72.102707,314.856812 72.213936,316.431824 73.053757,317.310455   C74.029152,318.330902 75.593933,318.873474 76.988411,319.394592   C90.411270,324.410675 103.568184,330.455841 117.358833,334.091064   C135.134933,338.776825 153.419662,341.536896 171.491928,345.092773   C176.329102,346.044556 181.190292,346.874268 186.040466,347.760010  M64.476494,311.503021   C64.476494,311.503021 64.513588,311.490540 64.476494,311.503021  z"/>
<path fill="#BC993E" opacity="1.000000" stroke="none" d=" M350.992676,306.006744   C345.682739,313.836639 337.203339,316.818787 329.235382,320.871429   C323.094391,323.994781 316.888794,324.710236 310.322205,325.080292   C308.374146,325.190063 305.636383,326.144226 304.762848,327.608032   C302.385620,331.591705 299.164093,331.444153 295.708008,330.352966   C290.211761,328.617645 285.540253,329.065369 280.939423,333.100098   C277.692963,335.947113 273.642761,336.055359 270.194489,332.533478   C269.540497,331.865509 268.506989,331.569122 267.000519,330.899109   C265.226105,329.452271 264.099762,328.207611 263.122192,326.647278   C267.675201,319.363159 272.090973,318.362244 278.834442,322.500366   C280.307678,323.404419 282.285706,323.485809 284.031250,323.946075   C284.816284,324.007904 285.601288,324.069733 287.002930,324.174133   C292.512512,325.990936 295.782471,323.215302 298.957184,320.172546   C299.894104,320.006317 300.831055,319.840057 302.383179,319.362793   C308.219391,318.851807 313.339294,318.535370 315.874786,312.727448   C316.202179,311.977570 317.389526,311.458374 318.287231,311.125580   C324.303223,308.895599 330.658447,307.314301 335.277802,301.996155   C335.760193,301.976166 335.952881,301.962860 336.145599,301.949585   C336.145599,301.949585 336.544769,302.017456 336.925720,302.242554   C337.567810,302.673065 337.850403,302.842712 338.154480,302.976532   C338.154480,302.976532 338.544830,303.047272 338.906250,303.388672   C340.227753,304.147644 341.187836,304.565186 342.147919,304.982758   C342.147919,304.982758 342.577728,305.032257 343.141052,305.266296   C346.133820,305.669128 348.563263,305.837921 350.992676,306.006744  z"/>
<path fill="#B18C35" opacity="1.000000" stroke="none" d=" M186.355103,347.817810   C181.190292,346.874268 176.329102,346.044556 171.491928,345.092773   C153.419662,341.536896 135.134933,338.776825 117.358833,334.091064   C103.568184,330.455841 90.411270,324.410675 76.988411,319.394592   C75.593933,318.873474 74.029152,318.330902 73.053757,317.310455   C72.213936,316.431824 72.102707,314.856812 71.669327,313.589661   C72.980766,313.432129 74.476654,312.784363 75.573547,313.197083   C82.391617,315.762238 89.045532,318.774384 95.902466,321.222046   C101.243942,323.128693 106.801147,324.430939 112.696945,325.998688   C113.131401,325.995605 113.538719,326.072083 113.929840,326.431396   C120.263947,328.532898 126.158112,330.476227 132.169739,331.935669   C135.359207,332.709961 138.752518,332.644562 142.053818,332.958252   C142.785828,332.997925 143.517838,333.037598 144.858124,333.390656   C148.658707,334.189087 151.851028,334.674133 155.043350,335.159210   C155.043350,335.159210 155.471939,335.036438 155.972107,335.017151   C156.657867,334.994080 156.843475,334.990295 157.029099,334.986542   C157.029099,334.986542 156.991699,335.002136 157.106461,335.251038   C158.177246,335.642090 159.133255,335.784241 160.089279,335.926392   C160.517029,335.973145 160.944794,336.019867 162.011780,336.315308   C171.098663,337.716980 179.546310,338.869904 187.995789,340.455200   C187.999771,342.903809 188.001938,344.920135 187.984802,347.137970   C187.965515,347.339508 187.938431,347.743530 187.938431,347.743530   C187.515533,347.787537 187.092636,347.831543 186.355103,347.817810  z"/>
<path fill="#AE8C3E" opacity="1.000000" stroke="none" d=" M188.004105,346.936432   C188.001938,344.920135 187.999771,342.903809 188.403198,340.449493   C190.871368,339.730743 192.933945,339.450012 194.996536,339.169250   C201.333893,339.781250 207.659348,340.686554 214.011078,340.944000   C227.149673,341.476471 240.301712,341.692200 253.449844,341.957031   C255.030685,341.988861 256.621613,341.518494 258.579895,341.074615   C259.575684,344.102264 261.399963,345.101990 264.700043,344.623962   C276.327698,342.939636 287.974548,341.363098 299.646118,340.024811   C302.507904,339.696716 305.491333,340.429382 308.730408,340.872925   C303.148438,342.043304 297.287567,343.363708 291.355011,343.920074   C275.168091,345.438080 258.951691,346.643677 242.745178,347.950806   C237.827484,348.347412 232.903961,348.671631 227.160522,348.843445   C218.886703,348.775360 211.435471,348.892853 203.984222,349.010345   C200.626694,348.992523 197.269165,348.974701 193.331940,348.612854   C191.169525,347.824677 189.586823,347.380554 188.004105,346.936432  z"/>
<path fill="#AE8C3E" opacity="1.000000" stroke="none" d=" M83.100014,308.395630   C83.163933,306.780182 83.178665,305.368958 83.729378,304.213074   C84.821411,301.921051 84.833267,300.339111 82.353035,298.824860   C79.204117,296.902374 80.184006,295.549927 83.711578,294.998108   C90.512238,297.625793 96.958435,300.274933 103.401978,302.930542   C107.388458,304.573547 111.370918,306.226257 115.881393,308.295166   C117.171997,309.801880 117.900932,310.915161 118.707405,311.969086   C121.194923,315.219910 123.672119,315.736481 126.073090,311.865601   C126.505554,311.917114 126.938019,311.968597 127.702461,312.484833   C128.955566,317.073395 129.110001,321.711639 134.734085,322.652405   C134.947998,322.688171 134.933868,324.087250 135.025986,324.851074   C121.024582,320.884552 106.997787,317.004150 93.040161,312.889130   C89.673622,311.896576 86.536057,310.127350 83.100014,308.395630  z"/>
<path fill="#C1A04D" opacity="1.000000" stroke="none" d=" M334.988129,302.002899   C330.658447,307.314301 324.303223,308.895599 318.287231,311.125580   C317.389526,311.458374 316.202179,311.977570 315.874786,312.727448   C313.339294,318.535370 308.219391,318.851807 302.580139,319.061310   C306.076263,317.551361 309.990631,316.031891 314.396515,314.321686   C306.371399,305.710144 298.647095,297.421387 290.794647,288.995178   C294.144653,284.438965 298.334808,285.449219 302.360626,286.841217   C306.885773,288.405975 311.273102,290.369476 316.041016,292.797455   C317.617310,293.940979 318.872925,294.446533 320.128540,294.952087   C320.128540,294.952087 320.559570,295.021118 320.949219,295.237030   C321.581207,295.661377 321.849823,295.827332 322.144714,295.950806   C322.548737,295.975555 322.952728,296.000305 323.847595,296.222839   C324.592194,296.627991 324.869202,296.797272 325.169464,296.928436   C325.169464,296.928436 325.567383,297.004028 325.951385,297.210632   C326.587067,297.622009 326.862244,297.787781 327.160919,297.914581   C327.160919,297.914581 327.562469,297.991699 327.943604,298.207916   C328.573181,298.635376 328.845428,298.809296 329.141541,298.945923   C329.141541,298.945923 329.571228,299.042023 329.953613,299.259705   C330.569305,299.680145 330.828552,299.841156 331.113739,299.960419   C331.113739,299.960419 331.559448,300.043335 331.949951,300.260437   C332.575470,300.679871 332.836578,300.839569 333.123779,300.956573   C333.536713,301.001221 333.949646,301.045837 334.675201,301.343750   C334.987823,301.597046 334.988129,302.002899 334.988129,302.002899  z"/>
<path fill="#B89543" opacity="1.000000" stroke="none" d=" M135.375488,325.043182   C134.933868,324.087250 134.947998,322.688171 134.734085,322.652405   C129.110001,321.711639 128.955566,317.073395 128.019211,312.565063   C131.587463,312.896362 135.175385,313.590668 138.753571,314.332001   C149.373657,316.532227 159.966797,318.871704 170.617462,320.911285   C175.890152,321.920990 181.266052,322.391815 186.614380,323.644196   C184.876678,325.426331 184.251373,326.706207 186.938995,327.360260   C188.811142,327.815918 190.792648,327.967377 192.727722,327.984497   C195.499435,328.009094 197.071396,329.072449 196.558929,332.007843   C193.407578,332.283508 190.687973,332.558624 187.968353,332.833771   C187.968353,332.833771 187.493103,332.934692 187.048889,332.592102   C183.726410,332.113098 180.848129,331.976654 177.969864,331.840210   C177.969864,331.840240 177.491623,331.941986 177.043793,331.589325   C171.370193,330.786591 166.144394,330.336548 160.918610,329.886475   C160.918610,329.886475 160.506622,329.978668 160.095825,329.625183   C155.105850,328.556488 150.526657,327.841248 145.947479,327.125977   C142.539993,326.495758 139.132507,325.865540 135.375488,325.043182  z"/>
<path fill="#AE8C3E" opacity="1.000000" stroke="none" d=" M431.055634,314.122772   C431.055634,314.122772 431.433502,313.999969 431.841370,313.818268   C432.494385,313.392700 432.739563,313.148834 432.984741,312.904938   C432.984741,312.904938 432.970764,312.969971 433.222412,312.882935   C433.973969,312.504059 434.473846,312.212219 434.973755,311.920349   C434.973755,311.920349 434.852661,311.911621 435.204956,311.856018   C436.691833,311.155762 437.826416,310.511169 438.960968,309.866577   C439.024780,309.529999 439.204590,309.275269 440.010864,308.964722   C440.986053,308.498260 441.450684,308.169525 441.915314,307.840790   C441.985382,307.520721 442.157990,307.271820 442.942444,306.949585   C443.945312,306.487488 444.438904,306.169922 444.932465,305.852325   C445.016754,305.537842 445.195648,305.292267 446.023041,305.007019   C447.354492,304.222473 448.132050,303.546509 448.909637,302.870575   C448.909637,302.870575 449.000732,302.955139 449.280823,302.901855   C450.357635,302.202484 451.154358,301.556396 451.951111,300.910309   C451.951111,300.910309 451.986237,300.978790 452.319885,300.931824   C453.716125,299.547272 454.778656,298.209747 455.841217,296.872192   C455.841217,296.872192 455.867950,296.958862 456.149872,296.846130   C456.922699,296.441589 457.413574,296.149750 457.904449,295.857910   C458.395599,295.297180 458.886749,294.736481 459.986572,294.082092   C461.058472,293.993683 461.521729,293.998932 462.127899,294.351501   C462.270844,297.799988 462.270844,300.901154 462.270844,303.796936   C465.384155,302.838409 467.611084,302.152740 469.838013,301.467102   C459.370422,312.241638 446.701630,319.550629 432.179901,324.886597   C427.278473,326.067963 423.041565,327.372528 418.779205,328.588074   C415.000366,329.665802 411.193268,330.644531 407.398651,331.666962   C407.306580,331.272980 407.214539,330.878998 407.122467,330.485016   C408.419342,329.762390 409.716187,329.039795 411.302887,328.239594   C411.785645,328.108612 411.978546,328.055206 412.546326,327.963470   C422.372650,325.804108 430.721100,321.324371 439.009125,316.715424   C438.788788,316.150238 438.568451,315.585022 438.348114,315.019836   C433.401642,316.987457 428.455170,318.955078 422.537109,321.309174   C423.351257,319.362244 423.658875,318.626556 423.966492,317.890900   C423.966522,317.890900 423.977020,317.955170 424.290100,317.930023   C425.727844,317.240601 426.852539,316.576355 427.977234,315.912109   C427.977234,315.912109 427.985352,315.975403 428.280640,315.936523   C429.402466,315.306030 430.229065,314.714386 431.055634,314.122772  z"/>
<path fill="#BB9A48" opacity="1.000000" stroke="none" d=" M196.990662,332.007324   C197.071396,329.072449 195.499435,328.009094 192.727722,327.984497   C190.792648,327.967377 188.811142,327.815918 186.938995,327.360260   C184.251373,326.706207 184.876678,325.426331 186.859924,323.983459   C200.435272,324.871887 213.784210,325.958771 227.963104,327.276276   C239.516510,327.386414 250.239944,327.265930 260.963379,327.145416   C260.963379,327.145416 261.424713,327.003754 261.932007,326.982117   C262.617310,326.961334 262.795349,326.962128 262.973419,326.962952   C264.099762,328.207611 265.226105,329.452271 266.640320,330.848206   C266.170563,332.279327 265.412903,333.559143 264.307220,334.896118   C264.133240,334.172516 264.307343,333.391785 264.550690,332.300415   C255.355148,332.880127 246.229370,333.455414 236.281525,333.874451   C224.967621,333.756866 214.475815,333.795563 203.983994,333.834229   C202.605118,333.876648 201.226242,333.919037 199.310852,333.643524   C198.179779,332.886200 197.585220,332.446747 196.990662,332.007324  z"/>
<path fill="#B19452" opacity="1.000000" stroke="none" d=" M103.942497,157.877121   C120.755142,151.972595 137.386536,145.457184 154.449051,140.394867   C164.526535,137.404938 175.279266,136.670227 185.741989,135.007187   C192.187881,133.982635 198.659485,133.119812 205.389893,133.337875   C171.528442,138.992401 138.948257,148.571198 107.481720,162.733643   C108.650627,159.173065 105.675018,158.953049 103.942497,157.877121  z"/>
<path fill="#C1A04D" opacity="1.000000" stroke="none" d=" M478.843719,260.974854   C479.942322,245.758057 475.569733,232.605652 464.376801,221.899231   C461.777802,219.413254 459.622192,216.463760 457.293762,213.173035   C457.943542,212.064743 458.562164,211.510971 459.180786,210.957184   C472.046509,220.213120 482.167084,232.117416 486.280975,247.260635   C488.680023,256.091522 486.722717,266.105896 486.322052,275.447266   C482.719910,269.066040 480.758118,268.002258 476.160461,270.015198   C476.758331,267.928131 477.356171,265.841064 478.207367,263.493164   C478.851929,263.280182 479.243134,263.328033 479.634369,263.375916   C479.370819,262.575562 479.107269,261.775208 478.843719,260.974854  z"/>
<path fill="#A8853A" opacity="1.000000" stroke="none" d=" M311.434204,340.923706   C311.838287,340.013672 312.681183,339.176178 313.779510,338.181183   C315.359039,338.017151 316.748596,337.750061 317.992737,338.062286   C320.109528,338.593506 322.134888,339.489197 324.198669,340.231720   C323.260040,341.929352 322.312317,343.622040 321.385223,345.325958   C320.302338,347.316132 319.237427,349.316132 317.849030,351.899139   C320.569550,352.649414 322.747772,353.250092 325.339447,353.964813   C323.679352,345.409363 324.634491,344.340088 332.890564,345.175446   C336.040894,345.494202 338.577515,345.475098 340.738770,342.524414   C342.369171,340.298553 344.476440,340.828186 345.540588,343.726654   C344.199341,344.643341 343.093994,345.224945 341.988647,345.806549   C341.548218,346.135925 341.107788,346.465302 340.041260,346.934265   C333.723846,349.013794 329.552734,352.638397 327.109833,358.178162   C327.109833,358.178162 327.013519,358.108978 326.840973,358.218872   C326.447479,358.595795 326.226532,358.862823 326.005585,359.129852   C326.005585,359.129852 326.019318,359.026398 325.794312,359.146362   C325.117737,359.659485 324.666138,360.052612 324.214508,360.445740   C324.214508,360.445709 324.522369,360.411438 324.190552,360.506592   C322.906952,361.412720 321.955170,362.223694 321.003387,363.034637   C321.003387,363.034637 320.988861,362.992462 320.668762,363.060852   C319.596802,364.131470 318.844879,365.133728 318.092987,366.135956   C318.092987,366.135956 318.064850,366.073608 317.797852,366.126099   C317.011993,366.486267 316.493103,366.793945 315.974213,367.101624   C315.974213,367.101624 316.016388,367.000183 315.788300,367.107178   C315.039368,367.750244 314.518494,368.286285 313.997620,368.822296   C310.596954,369.699707 307.196320,370.577118 303.795654,371.454529   C303.414795,370.981323 303.033936,370.508148 302.653046,370.034943   C306.582306,359.666870 314.522156,351.577026 320.344269,340.996246   C317.201904,340.996246 314.537476,340.996246 311.434204,340.923706  z"/>
<path fill="#B89543" opacity="1.000000" stroke="none" d=" M476.088074,270.390717   C480.758118,268.002258 482.719910,269.066040 485.977875,275.656250   C486.037048,276.005737 486.024170,276.028320 485.958160,276.141388   C485.785767,276.475555 485.747864,276.709747 485.778442,276.957031   C483.826080,282.613556 482.222412,288.464691 476.726257,292.818542   C475.882080,293.841309 475.478180,294.434875 475.074280,295.028473   C475.074280,295.028473 475.077759,295.072784 474.720062,295.148987   C472.865692,297.277985 471.369019,299.330780 469.872314,301.383545   C469.872314,301.383545 469.898712,301.443512 469.868347,301.455322   C467.611084,302.152740 465.384155,302.838409 462.270844,303.796936   C462.270844,300.901154 462.270844,297.799988 462.131805,293.999390   C461.979034,292.830933 461.965302,292.361938 461.951538,291.892914   C462.007416,291.561218 462.174713,291.301270 462.960999,290.919250   C463.961395,290.110260 464.454224,289.495148 464.947052,288.880035   C464.999725,288.560638 465.156250,288.304749 465.851593,287.816193   C466.579865,287.241394 466.873199,286.962799 467.166504,286.684204   C467.166473,286.684204 467.123840,286.651337 467.486450,286.574432   C470.723877,285.663727 471.727722,283.793671 470.933838,280.927917   C472.627777,277.540680 474.321716,274.153473 476.088074,270.390717  z"/>
<path fill="#A68D4E" opacity="1.000000" stroke="none" d=" M111.997765,303.000702   C94.503769,296.961243 77.514740,289.787689 63.784237,277.000580   C57.797775,271.425476 52.958794,264.599884 47.773655,258.200439   C46.897762,257.119446 46.911865,255.317383 46.148643,252.494110   C50.759178,257.921722 54.128872,262.376343 57.994858,266.347900   C69.397995,278.062439 83.053688,286.484894 97.949844,293.031616   C103.766083,295.587799 109.498405,298.334930 115.464996,301.357758   C114.439957,302.147186 113.218857,302.573944 111.997765,303.000702  z"/>
<path fill="#A68D4E" opacity="1.000000" stroke="none" d=" M103.575836,157.922180   C105.675018,158.953049 108.650627,159.173065 107.121475,162.795578   C107.121132,163.096588 107.082787,163.040497 106.923798,163.164352   C106.503754,163.459076 106.258522,163.650253 106.029114,163.861725   C95.713478,169.761261 85.404259,175.672104 75.067123,181.533752   C74.410332,181.906158 73.536766,181.896255 72.382317,182.106384   C73.176987,177.483032 70.163635,178.304810 67.677284,179.056915   C65.240952,179.793884 62.947334,181.002670 60.195606,181.991531   C69.278488,176.407150 78.756844,170.835617 88.745850,164.976776   C89.509705,164.510742 89.748802,164.314789 89.973785,164.101624   C94.385590,162.056839 98.797386,160.012039 103.575836,157.922180  z"/>
<path fill="#C1A04D" opacity="1.000000" stroke="none" d=" M263.122192,326.647278   C262.795349,326.962128 262.617310,326.961334 262.172302,326.960297   C258.558105,321.269989 255.210846,315.579895 251.716370,309.639496   C256.798126,307.099854 261.346466,307.199768 265.688599,310.281921   C271.741425,314.578369 277.728333,318.967560 283.887360,323.631592   C282.285706,323.485809 280.307678,323.404419 278.834442,322.500366   C272.090973,318.362244 267.675201,319.363159 263.122192,326.647278  z"/>
<path fill="#A68D4E" opacity="1.000000" stroke="none" d=" M369.294373,300.786804   C364.607239,301.976166 360.221710,302.976715 355.421936,303.774048   C355.007690,303.570770 354.989960,303.155212 354.989960,303.155212   C366.077087,300.453400 377.093658,297.376648 388.292603,295.268921   C391.842712,294.600769 395.879303,296.517303 399.897156,297.600128   C398.621552,298.037201 397.141998,298.125183 395.693665,298.211304   C395.040680,304.013031 389.441895,306.584595 380.528137,304.781433   C383.924194,303.645844 387.415283,303.032288 390.906403,302.418732   C390.793091,301.958252 390.679749,301.497803 390.566437,301.037354   C386.105347,301.247833 381.099426,299.403961 378.055328,304.957520   C377.569183,303.045959 377.083008,301.134399 376.443024,298.618011   C374.520477,299.173981 372.058258,299.885986 369.294373,300.786804  M391.259186,297.927246   C391.119385,298.024963 390.979553,298.122681 390.839752,298.220398   C390.976288,298.192780 391.112823,298.165161 391.259186,297.927246  z"/>
<path fill="#B18C35" opacity="1.000000" stroke="none" d=" M65.008926,305.972931   C64.547752,312.159912 59.726566,308.968933 58.220287,308.080841   C50.574421,303.572815 42.892151,299.012787 37.716637,291.263916   C35.508858,287.958374 32.103973,285.457916 29.285389,282.550629   C28.647846,281.893005 28.186361,281.064728 27.643839,280.315033   C27.921629,279.967560 28.199419,279.620117 28.477209,279.272675   C31.094225,281.151398 33.711239,283.030151 36.692696,284.940552   C37.057140,284.972198 37.005581,284.991058 37.099594,285.286438   C38.156429,286.385193 39.119251,287.188568 40.082077,287.991943   C40.082077,287.991943 40.455799,288.043854 40.692413,288.449829   C42.101055,293.621979 45.140015,295.992523 50.049194,295.963226   C50.049194,295.963226 50.000866,295.998352 50.068417,296.328186   C51.443886,297.429077 52.751808,298.200104 54.059727,298.971161   C54.059723,298.971161 54.002361,298.988251 54.144753,299.260803   C55.216835,300.004608 56.146530,300.475922 57.076225,300.947205   C57.076221,300.947205 57.015755,300.972015 57.154709,301.244019   C58.218548,301.995087 59.143436,302.474121 60.068321,302.953156   C60.068317,302.953156 60.007504,302.979309 60.118286,303.293213   C61.834351,304.399017 63.439629,305.190948 65.044907,305.982849   C65.044907,305.982849 64.997665,305.994934 65.008926,305.972931  z"/>
<path fill="#A48545" opacity="1.000000" stroke="none" d=" M411.013062,328.317169   C409.716187,329.039795 408.419342,329.762390 407.122467,330.485016   C407.214539,330.878998 407.306580,331.272980 407.398651,331.666962   C411.193268,330.644531 415.000366,329.665802 418.779205,328.588074   C423.041565,327.372528 427.278473,326.067963 431.812439,324.953217   C421.592468,328.394714 411.140381,331.874207 400.555878,334.888794   C395.872467,336.222656 390.933868,336.708649 386.083466,337.379608   C384.580475,337.587555 382.986389,337.137268 381.434021,336.988342   C381.395325,336.439423 381.356628,335.890503 381.317932,335.341583   C385.808594,334.223938 390.361053,333.303772 394.769501,331.923706   C398.058319,330.894135 401.119446,329.155792 404.369812,327.974915   C405.466095,327.576630 406.832245,327.921173 408.805115,328.016388   C410.027802,328.176758 410.520416,328.246979 411.013062,328.317169  z"/>
<path fill="#A48545" opacity="1.000000" stroke="none" d=" M423.585083,317.923096   C423.658875,318.626556 423.351257,319.362244 422.537109,321.309174   C428.455170,318.955078 433.401642,316.987457 438.348114,315.019836   C438.568451,315.585022 438.788788,316.150238 439.009125,316.715424   C430.721100,321.324371 422.372650,325.804108 412.506226,327.722656   C412.091187,327.520172 411.957703,327.051270 412.218018,326.917969   C411.687134,326.558655 410.895905,326.332611 409.773865,326.068726   C408.999390,326.036377 408.555695,326.041901 408.112061,326.047424   C408.564606,325.335938 408.852325,324.267944 409.496216,323.970215   C414.024261,321.876373 418.625671,319.941162 423.585083,317.923096  z"/>
<path fill="#A68D4E" opacity="1.000000" stroke="none" d=" M388.300018,321.851898   C389.738556,320.143066 391.536163,318.486542 393.357758,316.856812   C396.372589,314.159485 399.794708,311.800507 402.327026,308.710419   C405.450043,304.899567 402.264587,301.683441 400.132782,298.212524   C402.263000,299.398438 405.830383,300.554962 406.370667,302.536774   C407.042694,305.001709 405.928711,308.661316 404.322968,310.898346   C400.472443,316.262756 394.971161,319.777008 388.300018,321.851898  z"/>
<path fill="#B19452" opacity="1.000000" stroke="none" d=" M112.191391,303.332520   C113.218857,302.573944 114.439957,302.147186 115.836166,301.441162   C124.773766,304.051575 133.536240,306.941315 142.642761,310.276489   C142.984726,311.093048 142.982666,311.464203 142.980591,311.835327   C132.782059,309.111694 122.583549,306.388031 112.191391,303.332520  z"/>
<path fill="#A68D4E" opacity="1.000000" stroke="none" d=" M352.994904,333.001312   C354.100616,332.052399 355.061646,330.600891 356.334991,330.234375   C366.268372,327.374969 376.261780,324.724213 386.652496,322.003815   C382.056824,324.016724 377.118408,326.250031 372.010864,327.985382   C367.854614,329.397522 363.358368,329.859222 359.284027,331.440887   C357.214264,332.244324 355.742706,334.588684 353.742188,336.605713   C353.483643,336.975006 353.010712,337.019592 353.004761,337.011261   C352.998779,337.002930 352.982605,336.990601 352.874695,336.734375   C352.528107,335.975464 352.289490,335.472748 352.050842,334.970062   C352.050842,334.970062 352.044403,334.504974 352.206299,334.109955   C352.591949,333.490082 352.800842,333.252197 352.994904,333.001312  z"/>
<path fill="#A68D4E" opacity="1.000000" stroke="none" d=" M19.830635,231.589569   C18.810551,231.980179 17.881584,231.981262 16.604561,231.996048   C16.365166,225.006973 21.289118,216.166748 25.347256,215.510452   C23.549780,220.708435 21.735767,225.954239 19.830635,231.589569  z"/>
<path fill="#A8853A" opacity="1.000000" stroke="none" d=" M351.770477,335.110504   C352.289490,335.472748 352.528107,335.975464 352.851685,336.759277   C352.936584,337.040375 353.010712,337.019592 353.010712,337.019592   C353.010712,337.019592 353.483643,336.975006 353.720337,336.963226   C354.130920,336.987457 354.304749,337.023468 354.828674,337.464142   C357.229126,343.620514 356.448090,344.793457 350.401733,345.009094   C349.589386,345.038055 348.774567,344.995911 347.960876,344.986664   C349.137299,341.741425 350.313721,338.496185 351.770477,335.110504  z"/>
<path fill="#A48545" opacity="1.000000" stroke="none" d=" M141.832733,332.637146   C138.752518,332.644562 135.359207,332.709961 132.169739,331.935669   C126.158112,330.476227 120.263947,328.532898 114.123810,326.504333   C123.154984,328.250671 132.383316,330.283386 141.832733,332.637146  z"/>
<path fill="#A48545" opacity="1.000000" stroke="none" d=" M194.569534,339.098572   C192.933945,339.450012 190.871368,339.730743 188.401367,340.017151   C179.546310,338.869904 171.098663,337.716980 162.327759,336.382080   C164.999390,336.438507 167.991959,336.712799 170.989731,336.906097   C174.704803,337.145660 178.434418,337.207306 182.138947,337.549469   C186.151443,337.920013 190.142258,338.525055 194.569534,339.098572  z"/>
<path fill="#A68D4E" opacity="1.000000" stroke="none" d=" M347.695374,344.913635   C348.774567,344.995911 349.589386,345.038055 350.401733,345.009094   C356.448090,344.793457 357.229126,343.620514 355.082397,337.545166   C356.299622,338.902313 358.901276,340.860657 358.613434,342.196442   C358.219391,344.025177 355.768585,346.478729 353.952789,346.707520   C350.334198,347.163422 346.547638,346.285675 342.409546,345.882690   C343.093994,345.224945 344.199341,344.643341 345.645630,344.057312   C346.467682,344.315491 346.948792,344.578064 347.695374,344.913635  z"/>
<path fill="#A48545" opacity="1.000000" stroke="none" d=" M204.230865,349.364685   C211.435471,348.892853 218.886703,348.775360 226.700775,348.867126   C219.534912,349.290588 212.006226,349.504791 204.230865,349.364685  z"/>
<path fill="#B19452" opacity="1.000000" stroke="none" d=" M459.031555,210.633118   C458.562164,211.510971 457.943542,212.064743 457.147034,212.877380   C453.154388,209.765457 449.339630,206.394669 445.575531,202.594513   C445.778717,202.061188 445.931244,201.957214 446.083801,201.853241   C450.349976,204.671844 454.616119,207.490448 459.031555,210.633118  z"/>
<path fill="#A68D4E" opacity="1.000000" stroke="none" d=" M59.383286,192.144760   C60.489616,185.736420 63.521736,183.335464 69.445099,184.422882   C66.434273,187.107620 63.087112,189.594391 59.383286,192.144760  z"/>
<path fill="#A68D4E" opacity="1.000000" stroke="none" d=" M143.335968,312.031372   C142.982666,311.464203 142.984726,311.093048 142.986328,310.443573   C146.574265,310.882080 150.182312,311.514587 153.744583,312.343719   C156.371964,312.955200 158.939606,313.823303 161.374115,315.638184   C155.479858,314.501282 149.585602,313.364349 143.335968,312.031372  z"/>
<path fill="#B89543" opacity="1.000000" stroke="none" d=" M125.886581,311.525085   C123.672119,315.736481 121.194923,315.219910 118.707405,311.969086   C117.900932,310.915161 117.171997,309.801880 116.227036,308.445068   C119.264343,309.177765 122.482208,310.181152 125.886581,311.525085  z"/>
<path fill="#A68D4E" opacity="1.000000" stroke="none" d=" M327.458435,358.121826   C329.552734,352.638397 333.723846,349.013794 339.785583,347.044830   C336.039673,350.699036 331.923370,354.382263 327.458435,358.121826  z"/>
<path fill="#B19452" opacity="1.000000" stroke="none" d=" M298.623535,320.109802   C295.782471,323.215302 292.512512,325.990936 287.270203,324.070679   C290.710541,322.632141 294.500214,321.339600 298.623535,320.109802  z"/>
<path fill="#C1A04D" opacity="1.000000" stroke="none" d=" M260.503235,327.071716   C250.239944,327.265930 239.516510,327.386414 228.422974,327.339111   C238.716293,327.113556 249.379700,327.055756 260.503235,327.071716  z"/>
<path fill="#A68D4E" opacity="1.000000" stroke="none" d=" M204.190033,333.913208   C214.475815,333.795563 224.967621,333.756866 235.833008,333.928955   C236.206573,334.139771 236.172241,334.114014 235.702225,334.052643   C225.095871,334.028656 214.959549,334.066040 204.823212,334.103424   C204.823212,334.103424 204.396088,333.992188 204.190033,333.913208  z"/>
<path fill="#C1A04D" opacity="1.000000" stroke="none" d=" M205.037323,334.495300   C214.959549,334.066040 225.095871,334.028656 235.706863,334.073608   C235.002747,334.477661 233.824036,335.076660 232.645203,335.076904   C223.513962,335.078827 214.382706,334.965118 205.037323,334.495300  z"/>
<path fill="#A68D4E" opacity="1.000000" stroke="none" d=" M161.332764,329.964722   C166.144394,330.336548 171.370193,330.786591 176.805099,331.536560   C171.925110,331.238617 166.836014,330.640778 161.332764,329.964722  z"/>
<path fill="#A48545" opacity="1.000000" stroke="none" d=" M49.938995,295.637146   C45.140015,295.992523 42.101055,293.621979 40.876507,288.491058   C43.825592,290.521240 46.827198,292.916168 49.938995,295.637146  z"/>
<path fill="#A68D4E" opacity="1.000000" stroke="none" d=" M146.177063,327.459412   C150.526657,327.841248 155.105850,328.556488 159.892944,329.566895   C155.536133,329.172333 150.971405,328.482544 146.177063,327.459412  z"/>
<path fill="#A68D4E" opacity="1.000000" stroke="none" d=" M196.558929,332.007843   C197.585220,332.446747 198.179779,332.886200 198.900696,333.581665   C195.593231,333.629761 192.159439,333.421844 188.346985,333.023865   C190.687973,332.558624 193.407578,332.283508 196.558929,332.007843  z"/>
<path fill="#AE8C3E" opacity="1.000000" stroke="none" d=" M470.130707,301.222961   C471.369019,299.330780 472.865692,297.277985 474.697906,295.150757   C473.485321,297.071625 471.937195,299.066986 470.130707,301.222961  z"/>
<path fill="#A68D4E" opacity="1.000000" stroke="none" d=" M178.378174,331.918671   C180.848129,331.976654 183.726410,332.113098 186.810745,332.544159   C184.273361,332.558228 181.529922,332.277679 178.378174,331.918671  z"/>
<path fill="#A48545" opacity="1.000000" stroke="none" d=" M154.647858,335.074524   C151.851028,334.674133 148.658707,334.189087 145.219025,333.455139   C148.065216,333.800812 151.158798,334.395325 154.647858,335.074524  z"/>
<path fill="#B19452" opacity="1.000000" stroke="none" d=" M351.259338,305.846436   C348.563263,305.837921 346.133820,305.669128 343.345886,305.335876   C345.843323,304.739746 348.699310,304.308014 351.878235,303.677673   C351.976166,304.214752 351.751068,304.950439 351.259338,305.846436  z"/>
<path fill="#AE8C3E" opacity="1.000000" stroke="none" d=" M470.628479,281.091553   C471.727722,283.793671 470.723877,285.663727 467.500580,286.551514   C468.209106,284.822083 469.266113,283.038635 470.628479,281.091553  z"/>
<path fill="#A48545" opacity="1.000000" stroke="none" d=" M64.921707,305.657043   C63.439629,305.190948 61.834351,304.399017 60.133430,303.263794   C61.624691,303.724030 63.211594,304.527618 64.921707,305.657043  z"/>
<path fill="#BB9A48" opacity="1.000000" stroke="none" d=" M263.628845,334.973083   C263.140411,336.217529 262.326019,337.479645 261.197510,338.855652   C261.689880,337.643250 262.496399,336.317017 263.628845,334.973083  z"/>
<path fill="#A48545" opacity="1.000000" stroke="none" d=" M187.984802,347.137970   C189.586823,347.380554 191.169525,347.824677 192.878906,348.545502   C191.566452,348.516998 190.127335,348.211823 188.313324,347.825073   C187.938431,347.743530 187.965515,347.339508 187.984802,347.137970  z"/>
<path fill="#A48545" opacity="1.000000" stroke="none" d=" M455.552155,297.004425   C454.778656,298.209747 453.716125,299.547272 452.287964,300.910339   C453.035950,299.669464 454.149536,298.403076 455.552155,297.004425  z"/>
<path fill="#A48545" opacity="1.000000" stroke="none" d=" M53.941956,298.665161   C52.751808,298.200104 51.443886,297.429077 50.085228,296.303467   C51.297722,296.752319 52.560951,297.555756 53.941956,298.665161  z"/>
<path fill="#A68D4E" opacity="1.000000" stroke="none" d=" M55.026794,185.634735   C54.062031,186.578781 52.845741,187.719818 51.266968,188.901581   C52.194740,187.905441 53.485001,186.868576 55.026794,185.634735  z"/>
<path fill="#A68D4E" opacity="1.000000" stroke="none" d=" M321.320251,362.986633   C321.955170,362.223694 322.906952,361.412720 324.207764,360.660522   C323.583588,361.459045 322.610382,362.198822 321.320251,362.986633  z"/>
<path fill="#A68D4E" opacity="1.000000" stroke="none" d=" M318.379578,366.007202   C318.844879,365.133728 319.596802,364.131470 320.690308,363.066772   C320.243286,363.962372 319.454712,364.920410 318.379578,366.007202  z"/>
<path fill="#B19452" opacity="1.000000" stroke="none" d=" M319.968628,294.646393   C318.872925,294.446533 317.617310,293.940979 316.223816,293.112671   C317.326874,293.306885 318.567810,293.823792 319.968628,294.646393  z"/>
<path fill="#A48545" opacity="1.000000" stroke="none" d=" M438.606171,309.886780   C437.826416,310.511169 436.691833,311.155762 435.209045,311.795441   C435.991028,311.162659 437.121185,310.534821 438.606171,309.886780  z"/>
<path fill="#A48545" opacity="1.000000" stroke="none" d=" M159.921539,335.618591   C159.133255,335.784241 158.177246,335.642090 157.113983,335.232208   C157.922409,335.079926 158.838104,335.195374 159.921539,335.618591  z"/>
<path fill="#A48545" opacity="1.000000" stroke="none" d=" M427.621735,315.928131   C426.852539,316.576355 425.727844,317.240601 424.258423,317.922485   C425.031189,317.274780 426.148712,316.609467 427.621735,315.928131  z"/>
<path fill="#B89543" opacity="1.000000" stroke="none" d=" M478.571564,261.108490   C479.107269,261.775208 479.370819,262.575562 479.634369,263.375916   C479.243134,263.328033 478.851929,263.280182 478.283997,263.116425   C478.171326,262.414398 478.235382,261.828278 478.571564,261.108490  z"/>
<path fill="#B19452" opacity="1.000000" stroke="none" d=" M341.999207,304.671021   C341.187836,304.565186 340.227753,304.147644 339.093170,303.455048   C339.895935,303.573120 340.873199,303.966217 341.999207,304.671021  z"/>
<path fill="#C1A04D" opacity="1.000000" stroke="none" d=" M411.957703,327.051270   C411.957703,327.051270 412.091187,327.520172 412.131287,327.760986   C411.978546,328.055206 411.785645,328.108612 411.302887,328.239594   C410.520416,328.246979 410.027802,328.176758 409.172058,328.022400   C408.557922,327.485443 408.306885,327.032593 408.083954,326.313568   C408.555695,326.041901 408.999390,326.036377 409.877502,326.332764   C410.860535,326.773529 411.409119,326.912384 411.957703,327.051270  z"/>
<path fill="#A48545" opacity="1.000000" stroke="none" d=" M39.956890,287.701935   C39.119251,287.188568 38.156429,286.385193 37.107880,285.260468   C37.958672,285.763397 38.895187,286.587646 39.956890,287.701935  z"/>
<path fill="#A48545" opacity="1.000000" stroke="none" d=" M56.979404,300.625519   C56.146530,300.475922 55.216835,300.004608 54.153404,299.232147   C54.973969,299.388580 55.928276,299.846222 56.979404,300.625519  z"/>
<path fill="#A48545" opacity="1.000000" stroke="none" d=" M430.723633,314.059875   C430.229065,314.714386 429.402466,315.306030 428.252380,315.921722   C428.749756,315.296204 429.570679,314.646606 430.723633,314.059875  z"/>
<path fill="#A48545" opacity="1.000000" stroke="none" d=" M59.950211,302.647034   C59.143436,302.474121 58.218548,301.995087 57.164429,301.212830   C57.967495,301.386719 58.899796,301.863831 59.950211,302.647034  z"/>
<path fill="#A48545" opacity="1.000000" stroke="none" d=" M451.627319,300.937012   C451.154358,301.556396 450.357635,302.202484 449.227936,302.869812   C449.697815,302.248596 450.500671,301.606140 451.627319,300.937012  z"/>
<path fill="#A48545" opacity="1.000000" stroke="none" d=" M448.575806,302.879944   C448.132050,303.546509 447.354492,304.222473 446.244263,304.937042   C446.688385,304.280212 447.465179,303.584747 448.575806,302.879944  z"/>
<path fill="#A68D4E" opacity="1.000000" stroke="none" d=" M15.615183,233.060486   C15.753385,234.074814 15.536570,235.233582 15.120432,236.688141   C15.034129,235.724258 15.147148,234.464615 15.615183,233.060486  z"/>
<path fill="#B19452" opacity="1.000000" stroke="none" d=" M445.383301,202.298111   C444.511841,202.165100 443.883240,201.899109 443.254639,201.633133   C443.295776,201.454681 443.336945,201.276245 443.378082,201.097794   C444.185516,201.154953 444.992920,201.212112 445.942078,201.561249   C445.931244,201.957214 445.778717,202.061188 445.383301,202.298111  z"/>
<path fill="#A68D4E" opacity="1.000000" stroke="none" d=" M50.674187,189.011032   C50.470890,189.534683 49.980106,190.159561 49.195419,190.890015   C49.396576,190.367798 49.891640,189.740036 50.674187,189.011032  z"/>
<path fill="#A68D4E" opacity="1.000000" stroke="none" d=" M69.961441,184.126526   C70.221825,183.531830 70.885719,182.932281 71.847977,182.174637   C71.552544,182.718262 70.958748,183.419968 69.961441,184.126526  z"/>
<path fill="#A48545" opacity="1.000000" stroke="none" d=" M464.667664,288.991547   C464.454224,289.495148 463.961395,290.110260 463.180542,290.829651   C463.391113,290.323608 463.889679,289.713318 464.667664,288.991547  z"/>
<path fill="#A48545" opacity="1.000000" stroke="none" d=" M461.670471,292.002014   C461.965302,292.361938 461.979034,292.830933 461.988861,293.652069   C461.521729,293.998932 461.058472,293.993683 460.247437,293.975952   C460.396240,293.346039 460.892822,292.728607 461.670471,292.002014  z"/>
<path fill="#A68D4E" opacity="1.000000" stroke="none" d=" M314.294067,368.819458   C314.518494,368.286285 315.039368,367.750244 315.838989,367.128326   C315.608673,367.633850 315.099609,368.225250 314.294067,368.819458  z"/>
<path fill="#AE8C3E" opacity="1.000000" stroke="none" d=" M475.344055,294.930786   C475.478180,294.434875 475.882080,293.841309 476.538727,293.129333   C476.398926,293.618347 476.006378,294.225708 475.344055,294.930786  z"/>
<path fill="#A48545" opacity="1.000000" stroke="none" d=" M457.593384,295.876709   C457.413574,296.149750 456.922699,296.441589 456.148560,296.802612   C456.337677,296.546326 456.809998,296.220917 457.593384,295.876709  z"/>
<path fill="#A68D4E" opacity="1.000000" stroke="none" d=" M316.301056,367.078857   C316.493103,366.793945 317.011993,366.486267 317.832031,366.127197   C317.631439,366.402588 317.129669,366.729340 316.301056,367.078857  z"/>
<path fill="#B19452" opacity="1.000000" stroke="none" d=" M354.715118,303.079956   C354.989960,303.155212 355.007690,303.570770 355.017578,303.778381   C354.528137,303.866852 354.028778,303.747772 353.171814,303.481598   C353.356201,303.224548 353.898254,303.114624 354.715118,303.079956  z"/>
<path fill="#A48545" opacity="1.000000" stroke="none" d=" M444.620819,305.889465   C444.438904,306.169922 443.945312,306.487488 443.164551,306.882629   C443.354614,306.615662 443.831909,306.271149 444.620819,305.889465  z"/>
<path fill="#A68D4E" opacity="1.000000" stroke="none" d=" M324.540863,360.422974   C324.666138,360.052612 325.117737,359.659485 325.846008,359.153412   C325.704193,359.493713 325.285706,359.946960 324.540863,360.422974  z"/>
<path fill="#A48545" opacity="1.000000" stroke="none" d=" M434.665619,311.942932   C434.473846,312.212219 433.973969,312.504059 433.191772,312.870056   C433.392120,312.617950 433.874817,312.291718 434.665619,311.942932  z"/>
<path fill="#A48545" opacity="1.000000" stroke="none" d=" M441.616608,307.897034   C441.450684,308.169525 440.986053,308.498260 440.244507,308.910461   C440.417694,308.647003 440.867798,308.300110 441.616608,307.897034  z"/>
<path fill="#A68D4E" opacity="1.000000" stroke="none" d=" M58.628471,182.836823   C58.464367,183.132263 57.990459,183.481110 57.222404,183.897064   C57.391727,183.606186 57.855198,183.248199 58.628471,182.836823  z"/>
<path fill="#A68D4E" opacity="1.000000" stroke="none" d=" M56.682018,184.038422   C56.660381,184.412888 56.350784,184.898926 55.822762,185.588806   C55.867580,185.245087 56.130817,184.697556 56.682018,184.038422  z"/>
<path fill="#B19452" opacity="1.000000" stroke="none" d=" M338.047852,302.710144   C337.850403,302.842712 337.567810,302.673065 337.118225,302.305298   C337.266907,302.243225 337.604065,302.343475 338.047852,302.710144  z"/>
<path fill="#B19452" opacity="1.000000" stroke="none" d=" M322.046082,295.692993   C321.849823,295.827332 321.581207,295.661377 321.159119,295.296906   C321.302094,295.239014 321.624756,295.337128 322.046082,295.692993  z"/>
<path fill="#A68D4E" opacity="1.000000" stroke="none" d=" M326.292297,359.068054   C326.226532,358.862823 326.447479,358.595795 326.875488,358.170654   C326.914703,358.343811 326.746826,358.675018 326.292297,359.068054  z"/>
<path fill="#B19452" opacity="1.000000" stroke="none" d=" M106.294662,163.867584   C106.258522,163.650253 106.503754,163.459076 106.954849,163.150543   C106.949997,163.299728 106.755104,163.586578 106.294662,163.867584  z"/>
<path fill="#B19452" opacity="1.000000" stroke="none" d=" M89.715927,164.118561   C89.748802,164.314789 89.509705,164.510742 89.070465,164.828125   C89.075638,164.689697 89.266853,164.412598 89.715927,164.118561  z"/>
<path fill="#B19452" opacity="1.000000" stroke="none" d=" M335.277802,301.996155   C334.988129,302.002899 334.987823,301.597046 334.982605,301.394440   C335.298676,301.273102 335.619965,301.354401 336.043427,301.692627   C335.952881,301.962860 335.760193,301.976166 335.277802,301.996155  z"/>
<path fill="#B19452" opacity="1.000000" stroke="none" d=" M333.027252,300.706848   C332.836578,300.839569 332.575470,300.679871 332.167145,300.325317   C332.306122,300.267792 332.618439,300.362427 333.027252,300.706848  z"/>
<path fill="#B19452" opacity="1.000000" stroke="none" d=" M331.022430,299.707764   C330.828552,299.841156 330.569305,299.680145 330.163971,299.324768   C330.304993,299.266449 330.618042,299.360779 331.022430,299.707764  z"/>
<path fill="#A48545" opacity="1.000000" stroke="none" d=" M432.706970,312.960175   C432.739563,313.148834 432.494385,313.392700 432.037201,313.785065   C432.026520,313.627502 432.227844,313.321442 432.706970,312.960175  z"/>
<path fill="#B19452" opacity="1.000000" stroke="none" d=" M329.049286,298.676605   C328.845428,298.809296 328.573181,298.635376 328.139801,298.265564   C328.288910,298.207092 328.622955,298.307190 329.049286,298.676605  z"/>
<path fill="#C1A04D" opacity="1.000000" stroke="none" d=" M485.850647,276.731445   C485.747864,276.709747 485.785767,276.475555 485.947693,276.146729   C486.003204,276.039032 485.922852,276.505890 485.850647,276.731445  z"/>
<path fill="#A48545" opacity="1.000000" stroke="none" d=" M156.954498,334.754517   C156.843475,334.990295 156.657867,334.994080 156.193420,334.990662   C156.236359,334.829803 156.558136,334.676117 156.954498,334.754517  z"/>
<path fill="#B19452" opacity="1.000000" stroke="none" d=" M327.058411,297.651794   C326.862244,297.787781 326.587067,297.622009 326.146454,297.265137   C326.290314,297.205017 326.623108,297.296997 327.058411,297.651794  z"/>
<path fill="#A48545" opacity="1.000000" stroke="none" d=" M466.852966,286.779907   C466.873199,286.962799 466.579865,287.241394 466.051697,287.703735   C466.057709,287.550171 466.298584,287.212891 466.852966,286.779907  z"/>
<path fill="#B19452" opacity="1.000000" stroke="none" d=" M325.068359,296.660736   C324.869202,296.797272 324.592194,296.627991 324.148132,296.266602   C324.294281,296.206085 324.630768,296.299561 325.068359,296.660736  z"/>
<path fill="#000000" opacity="1.000000" stroke="none" d=" M378.377289,304.982788   C381.099426,299.403961 386.105347,301.247833 390.566437,301.037354   C390.679749,301.497803 390.793091,301.958252 390.906403,302.418732   C387.415283,303.032288 383.924194,303.645844 380.209106,304.588074   C379.556519,304.947235 379.127869,304.977661 378.377289,304.982788  z"/>
<path fill="#A8853A" opacity="1.000000" stroke="none" d=" M352.819580,333.161774   C352.800842,333.252197 352.591949,333.490082 352.194672,333.877686   C352.209778,333.784485 352.417480,333.545074 352.819580,333.161774  z"/>
<path fill="#B18C35" opacity="1.000000" stroke="none" d=" M64.495041,311.496765   C64.513588,311.490540 64.476494,311.503021 64.495041,311.496765  z"/>
<path fill="#B18C35" opacity="1.000000" stroke="none" d=" M391.254272,298.032379   C391.112823,298.165161 390.976288,298.192780 390.839752,298.220398   C390.979553,298.122681 391.119385,298.024963 391.254272,298.032379  z"/>
<path fill="#000000" opacity="1.000000" stroke="none" d=" M412.218018,326.917969   C411.409119,326.912384 410.860535,326.773529 410.208313,326.370605   C410.895905,326.332611 411.687134,326.558655 412.218018,326.917969  z"/>
<path fill="#A68D4E" opacity="1.000000" stroke="none" d=" M353.004761,337.011261   C353.010712,337.019592 352.936584,337.040375 352.959595,337.015503   C352.982605,336.990601 352.998779,337.002930 353.004761,337.011261  z"/>
</svg>